<svg width="93" height="91" viewBox="0 0 93 91" fill="none" xmlns="http://www.w3.org/2000/svg">
<g clip-path="url(#clip0_453_6249)">
<path d="M37.5157 36.0103C45.9899 36.0103 52.8596 29.2457 52.8596 20.9011C52.8596 12.5566 45.9899 5.79199 37.5157 5.79199C29.0415 5.79199 22.1719 12.5566 22.1719 20.9011C22.1719 29.2457 29.0415 36.0103 37.5157 36.0103Z" fill="white"/>
<path d="M42.0423 80.1285C41.1971 79.3054 40.6457 78.2348 40.4705 77.0771C40.2953 75.9195 40.5058 74.737 41.0705 73.7071L42.4258 71.1889L39.6384 70.3579C38.5017 70.0076 37.5121 69.3016 36.8198 68.3472C36.1275 67.3929 35.7703 66.2421 35.8024 65.0697V59.9074C35.8003 58.7401 36.1795 57.6032 36.8841 56.6645C37.5887 55.7258 38.5812 55.0352 39.7151 54.6948L42.5026 53.8637L41.1728 51.3456C40.6246 50.3297 40.4161 49.1694 40.5768 48.0299C40.7375 46.8905 41.2593 45.8301 42.0678 44.9997C40.1004 44.7457 38.119 44.6112 36.1349 44.5968C30.2744 44.461 24.4556 45.6002 19.0936 47.9333C13.7316 50.2664 8.95851 53.7359 5.11475 58.0943V77.6103C5.11475 78.2782 5.38418 78.9187 5.86376 79.3909C6.34335 79.8632 6.99381 80.1285 7.67205 80.1285H42.0423Z" fill="white"/>
<path d="M86.1812 59.0768L81.0666 57.5659C80.7122 56.3222 80.2146 55.1225 79.5834 53.9901L82.1407 49.3062C82.2395 49.1324 82.2757 48.9307 82.2431 48.7341C82.2106 48.5374 82.1114 48.3574 81.9617 48.2234L78.2536 44.5469C78.1108 44.41 77.9287 44.3197 77.732 44.2881C77.5353 44.2566 77.3335 44.2854 77.1539 44.3706L72.4229 46.8888C71.2584 46.2659 70.0333 45.7597 68.766 45.3779L67.206 40.3415C67.1374 40.1558 67.012 39.9956 66.8472 39.8828C66.6823 39.7701 66.4861 39.7104 66.2854 39.7119H60.9662C60.7668 39.7174 60.5739 39.7832 60.4138 39.9003C60.2537 40.0175 60.1341 40.1803 60.0711 40.3667L58.5368 45.4031C57.2449 45.7732 56.0007 46.2886 54.8287 46.9391L50.1999 44.421C50.02 44.3268 49.8145 44.2907 49.6126 44.3178C49.4107 44.3449 49.2225 44.4339 49.0747 44.5721L45.3155 48.1982C45.1675 48.3387 45.0699 48.5228 45.0376 48.7227C45.0053 48.9227 45.04 49.1275 45.1365 49.3062L47.6938 53.8894C47.0087 55.0268 46.4513 56.2342 46.0315 57.4904L40.9169 59.0265C40.7234 59.0815 40.5536 59.1976 40.4336 59.3568C40.3135 59.516 40.2497 59.7095 40.252 59.9078V65.0701C40.2497 65.2684 40.3135 65.462 40.4336 65.6212C40.5536 65.7804 40.7234 65.8964 40.9169 65.9515L46.0315 67.4876C46.4149 68.7209 46.9292 69.9111 47.5659 71.0382L45.0086 75.8228C44.9122 76.0016 44.8775 76.2064 44.9098 76.4063C44.9421 76.6062 45.0396 76.7903 45.1876 76.9308L48.998 80.5822C49.1458 80.7204 49.3339 80.8093 49.5359 80.8364C49.7378 80.8635 49.9433 80.8275 50.1232 80.7333L54.9054 78.2151C56.0434 78.8178 57.2437 79.299 58.4856 79.6505L60.02 84.8127C60.0843 85.0032 60.2079 85.1688 60.3731 85.2863C60.5383 85.4038 60.7368 85.4672 60.9406 85.4675H66.1831C66.3825 85.462 66.5754 85.3962 66.7355 85.2791C66.8956 85.162 67.0152 84.9991 67.0782 84.8127L68.6125 79.6505C69.8397 79.3034 71.0234 78.8219 72.1416 78.2151L76.9749 80.7333C77.1549 80.8275 77.3604 80.8635 77.5623 80.8364C77.7642 80.8093 77.9524 80.7204 78.1002 80.5822L81.8338 76.9308C81.9742 76.7853 82.0645 76.6 82.092 76.4012C82.1195 76.2023 82.0829 76 81.9873 75.8228L79.43 71.0886C80.0417 69.9854 80.5304 68.8202 80.8876 67.6135L86.0022 66.0774C86.1944 66.0165 86.3632 65.8997 86.4865 65.7424C86.6098 65.585 86.6817 65.3945 86.6927 65.196V59.9834C86.6989 59.8008 86.6546 59.62 86.5646 59.4603C86.4745 59.3006 86.342 59.1681 86.1812 59.0768ZM63.6002 70.9627C61.9098 70.9677 60.2559 70.4786 58.8479 69.5575C57.4399 68.6363 56.3412 67.3245 55.6908 65.7881C55.0404 64.2517 54.8676 62.5598 55.1943 60.9266C55.5209 59.2934 56.3324 57.7924 57.5259 56.6136C58.7194 55.4348 60.2413 54.6313 61.8989 54.3047C63.5564 53.9781 65.2751 54.1432 66.8374 54.779C68.3996 55.4149 69.7351 56.4929 70.6748 57.8766C71.6144 59.2602 72.116 60.8874 72.1161 62.5519C72.1161 64.7783 71.2197 66.9138 69.6234 68.4904C68.0271 70.067 65.8611 70.956 63.6002 70.9627Z" fill="white"/>
</g>
<defs>
<clipPath id="clip0_453_6249">
<rect width="92.063" height="90.6549" fill="white"/>
</clipPath>
</defs>
</svg>
