<svg width="84" height="86" viewBox="0 0 84 86" fill="none" xmlns="http://www.w3.org/2000/svg">
<path d="M82.9427 39.39L77.6093 34.0567C77.4856 33.9329 77.3386 33.8346 77.1768 33.7676C77.0151 33.7006 76.8417 33.6661 76.6666 33.6661C76.4915 33.6661 76.3182 33.7006 76.1564 33.7676C75.9947 33.8346 75.8477 33.9329 75.7239 34.0567L70.3906 39.39C70.2667 39.5138 70.1685 39.6608 70.1015 39.8225C70.0345 39.9843 70 40.1576 70 40.3327V53.666C70 53.8412 70.0344 54.0146 70.1014 54.1763C70.1684 54.3381 70.2666 54.4851 70.3904 54.609C70.5142 54.7328 70.6612 54.831 70.823 54.898C70.9848 54.965 71.1582 54.9994 71.3333 54.9994H82C82.1751 54.9994 82.3485 54.965 82.5103 54.898C82.6721 54.831 82.8191 54.7328 82.9429 54.609C83.0667 54.4851 83.1649 54.3381 83.2319 54.1763C83.2989 54.0146 83.3334 53.8412 83.3333 53.666V40.3327C83.3333 40.1576 83.2989 39.9842 83.2318 39.8225C83.1648 39.6607 83.0665 39.5138 82.9427 39.39Z" fill="white"/>
<path d="M59.3333 22.9994H19.3333C19.1582 22.9993 18.9848 23.0338 18.823 23.1008C18.6612 23.1678 18.5142 23.266 18.3904 23.3898C18.2666 23.5136 18.1684 23.6606 18.1014 23.8224C18.0344 23.9842 18 24.1576 18 24.3327V44.3327C17.9999 44.5865 18.0723 44.835 18.2086 45.0491C18.345 45.2631 18.5396 45.4338 18.7695 45.5411L38.7695 54.8744C38.9461 54.9567 39.1385 54.9994 39.3333 54.9994C39.5281 54.9994 39.7206 54.9567 39.8971 54.8744L59.8971 45.5411C60.1271 45.4338 60.3217 45.2631 60.458 45.0491C60.5943 44.835 60.6667 44.5865 60.6667 44.3327V24.3327C60.6667 24.1576 60.6323 23.9842 60.5653 23.8224C60.4983 23.6606 60.4001 23.5136 60.2762 23.3898C60.1524 23.266 60.0054 23.1678 59.8436 23.1008C59.6818 23.0338 59.5084 22.9993 59.3333 22.9994Z" fill="white"/>
<path d="M59.3333 22.9994H19.3333C19.1582 22.9993 18.9848 23.0338 18.823 23.1008C18.6612 23.1678 18.5142 23.266 18.3904 23.3898C18.2666 23.5136 18.1684 23.6606 18.1014 23.8224C18.0344 23.9842 18 24.1576 18 24.3327V37.1824L38.7695 46.8744C38.9461 46.9568 39.1385 46.9994 39.3333 46.9994C39.5281 46.9994 39.7206 46.9568 39.8971 46.8744L60.6667 37.1823V24.3327C60.6667 24.1576 60.6323 23.9842 60.5653 23.8224C60.4983 23.6606 60.4001 23.5136 60.2762 23.3898C60.1524 23.266 60.0054 23.1678 59.8436 23.1008C59.6818 23.0338 59.5084 22.9993 59.3333 22.9994Z" fill="white"/>
<path d="M77.2279 17.7897L39.8946 0.456414C39.7186 0.375348 39.5271 0.33337 39.3334 0.33337C39.1396 0.33337 38.9481 0.375348 38.7722 0.456414L1.43883 17.7897C1.2082 17.8968 1.01298 18.0675 0.876175 18.2819C0.739372 18.4962 0.666687 18.7451 0.666687 18.9994C0.666687 19.2536 0.739372 19.5026 0.876175 19.7169C1.01298 19.9312 1.2082 20.102 1.43883 20.209L38.7722 37.5424C38.948 37.6238 39.1395 37.6661 39.3334 37.6661C39.5272 37.6661 39.7187 37.6238 39.8946 37.5424L77.2279 20.209C77.4585 20.102 77.6537 19.9312 77.7905 19.7169C77.9273 19.5026 78 19.2536 78 18.9994C78 18.7451 77.9273 18.4962 77.7905 18.2819C77.6537 18.0675 77.4585 17.8968 77.2279 17.7897Z" fill="white"/>
<path d="M76.6667 30.9994C76.4916 30.9995 76.3182 30.965 76.1564 30.898C75.9946 30.831 75.8476 30.7328 75.7238 30.609C75.5999 30.4852 75.5017 30.3382 75.4347 30.1764C75.3677 30.0146 75.3333 29.8412 75.3333 29.6661V20.3327H39.3333C38.9797 20.3327 38.6406 20.1923 38.3905 19.9422C38.1405 19.6922 38 19.353 38 18.9994C38 18.6458 38.1405 18.3067 38.3905 18.0566C38.6406 17.8066 38.9797 17.6661 39.3333 17.6661H76.6667C76.8418 17.666 77.0152 17.7005 77.177 17.7675C77.3388 17.8345 77.4858 17.9327 77.6096 18.0565C77.7334 18.1803 77.8316 18.3273 77.8986 18.4891C77.9656 18.6509 78 18.8243 78 18.9994V29.6661C78 29.8412 77.9656 30.0146 77.8986 30.1764C77.8316 30.3382 77.7334 30.4852 77.6096 30.609C77.4858 30.7328 77.3388 30.831 77.177 30.898C77.0152 30.965 76.8418 30.9995 76.6667 30.9994Z" fill="white"/>
<path d="M76.6666 38.9994C79.6121 38.9994 81.9999 36.6116 81.9999 33.666C81.9999 30.7205 79.6121 28.3327 76.6666 28.3327C73.7211 28.3327 71.3333 30.7205 71.3333 33.666C71.3333 36.6116 73.7211 38.9994 76.6666 38.9994Z" fill="white"/>
<path d="M65.6973 80.2858C63.9115 79.7989 62 75.4147 62 69.6661C62 63.9174 63.9115 59.5332 65.6973 59.0463C66.0254 58.9567 66.3069 58.7451 66.4842 58.4549C66.6615 58.1646 66.7212 57.8176 66.6511 57.4848C66.581 57.152 66.3864 56.8585 66.1071 56.6645C65.8278 56.4704 65.4849 56.3904 65.1485 56.4408L39.3333 60.3184L13.5098 56.4395L12.8561 56.3457C12.7934 56.3369 12.73 56.3325 12.6667 56.3327C8.86588 56.3327 6 62.0645 6 69.6661C6 77.2676 8.86588 82.9994 12.6667 82.9994C12.73 82.9996 12.7934 82.9952 12.8561 82.9864L39.3333 79.0137L65.1484 82.8914C65.4848 82.9418 65.8277 82.8618 66.107 82.6677C66.3863 82.4736 66.5809 82.1802 66.651 81.8474C66.7212 81.5145 66.6615 81.1675 66.4842 80.8773C66.3069 80.587 66.0254 80.3754 65.6973 80.2858Z" fill="white"/>
<path d="M44.6666 57.6661H34C33.293 57.6669 32.6152 57.9481 32.1153 58.448C31.6153 58.9479 31.3341 59.6258 31.3333 60.3327V84.3327C31.3333 84.5507 31.3868 84.7652 31.4889 84.9577C31.5911 85.1502 31.7388 85.3148 31.9193 85.4369C32.0997 85.5591 32.3073 85.6352 32.524 85.6586C32.7407 85.682 32.9597 85.6519 33.1621 85.571L39.3333 83.1023L45.5045 85.571C45.7069 85.6519 45.926 85.682 46.1426 85.6586C46.3593 85.6352 46.5669 85.5591 46.7474 85.4369C46.9278 85.3148 47.0756 85.1502 47.1777 84.9577C47.2798 84.7652 47.3333 84.5507 47.3333 84.3327V60.3327C47.3325 59.6258 47.0513 58.9479 46.5514 58.448C46.0514 57.9481 45.3736 57.6669 44.6666 57.6661Z" fill="white"/>
<path d="M66 56.3327C65.9367 56.3325 65.8733 56.3369 65.8106 56.3457L65.1569 56.4395C65.1025 56.4475 65.0486 56.4588 64.9955 56.4733C61.6615 57.3835 59.3334 62.808 59.3334 69.6661C59.3334 76.5241 61.6615 81.9486 64.9955 82.8588C65.0486 82.8733 65.1025 82.8846 65.1569 82.8926L65.8106 82.9864C65.8733 82.9952 65.9367 82.9996 66 82.9994C69.8008 82.9994 72.6667 77.2676 72.6667 69.6661C72.6667 62.0645 69.8008 56.3327 66 56.3327Z" fill="white"/>
<path d="M63.3334 68.3327H59.3645C59.3448 68.7707 59.3334 69.2148 59.3334 69.6661C59.3334 76.5241 61.6615 81.9486 64.9955 82.8588C65.0486 82.8733 65.1025 82.8846 65.1569 82.8926L65.8106 82.9864C65.8733 82.9952 65.9367 82.9996 66 82.9994C66.4558 82.9977 66.9076 82.9136 67.3334 82.751V72.3327C67.3322 71.2722 66.9104 70.2555 66.1605 69.5056C65.4106 68.7557 64.3939 68.3339 63.3334 68.3327Z" fill="white"/>
</svg>
